<svg xmlns="http://www.w3.org/2000/svg" viewBox="0 0 109.92 127.22">
  <defs>
    <style>
      .cls-1,
      .cls-4 {
        fill: #d24b49;
      }
      .cls-1,
      .cls-2,
      .cls-3 {
        fill-rule: evenodd;
      }
      .cls-2 {
        fill: #fff;
      }
      .cls-3 {
        fill: #fcded9;
      }
    </style>
  </defs>
  <title>404-error-pic</title>
  <g id="Layer_2" data-name="Layer 2">
    <g id="Layer_1-2" data-name="Layer 1">
      <path
        class="cls-1"
        d="M83.27,7.95H7.95V115.56L10,117.63l12.17-12.17a4,4,0,0,1,5.62,0L40,117.63l12.17-12.17a4,4,0,0,1,5.62,0l12.17,12.17,12.17-12.17a4,4,0,0,1,5.62,0L99.9,117.63l2.07-2.07V26.64ZM4,0H84.92a4,4,0,0,1,2.83,1.18l21,21A4,4,0,0,1,109.92,25v92.2a4,4,0,0,1-1.18,2.83l-6,6a4,4,0,0,1-5.62,0L84.92,113.89,72.75,126.06a4,4,0,0,1-5.62,0L55,113.89,42.79,126.06a4,4,0,0,1-5.62,0L25,113.89,12.83,126.06a4,4,0,0,1-5.62,0l-6-6A4,4,0,0,1,0,117.2H0V4A4,4,0,0,1,4,0Z"
      />
      <polygon
        class="cls-2"
        points="3.97 3.97 84.92 3.97 105.94 25 105.94 117.2 99.9 123.25 84.92 108.27 69.94 123.25 54.96 108.27 39.98 123.25 25 108.27 10.02 123.25 3.97 117.2 3.97 3.97"
      />
      <path
        class="cls-1"
        d="M80.95,25V4h0a4,4,0,0,1,6.78-2.81l21,21a4,4,0,0,1-2.79,6.8h-21a4,4,0,0,1-4-4m7.95-11.43V21h7.46Z"
      />
      <polygon class="cls-3" points="84.92 3.97 84.92 25 105.94 25 84.92 3.97" />
      <polygon
        class="cls-3"
        points="39.98 115.8 25 100.82 10.02 115.8 3.97 109.75 3.97 117.2 10.02 123.25 25 108.27 39.98 123.25 54.96 108.27 69.94 123.25 84.92 108.27 99.9 123.25 105.94 117.2 105.94 109.75 99.9 115.8 84.92 100.82 69.94 115.8 54.96 100.82 39.98 115.8"
      />
      <rect
        class="cls-4"
        x="25.39"
        y="37.04"
        width="21.02"
        height="3.97"
        transform="translate(-17.08 36.82) rotate(-45)"
      />
      <rect
        class="cls-4"
        x="33.92"
        y="28.52"
        width="3.97"
        height="21.02"
        transform="translate(-17.08 36.82) rotate(-45)"
      />
      <rect
        class="cls-4"
        x="63.5"
        y="37.04"
        width="21.02"
        height="3.97"
        transform="translate(-5.92 63.76) rotate(-45)"
      />
      <rect
        class="cls-4"
        x="72.03"
        y="28.52"
        width="3.97"
        height="21.02"
        transform="translate(-5.92 63.77) rotate(-45)"
      />
      <path class="cls-4" d="M25.13,66.25a2,2,0,0,1,0-4H84.79a2,2,0,1,1,0,4Z" />
      <path
        class="cls-4"
        d="M82.8,66.25H70.48v6.16a6.16,6.16,0,0,0,12.32,0Zm-14.31-4H86.78V72.41a10.13,10.13,0,0,1-20.27,0V62.27Z"
      />
      <path class="cls-4" d="M74.66,64.26a2,2,0,1,1,4,0v5.52a2,2,0,1,1-4,0Z" />
      <path
        class="cls-3"
        d="M76.64,71.76a2,2,0,0,1-2-2V66.25H70.48v6.16a6.16,6.16,0,0,0,12.32,0V66.25H78.63v3.53a2,2,0,0,1-2,2"
      />
    </g>
  </g>
</svg>