<?xml version="1.0" encoding="UTF-8"?>
<svg
    width="152px"
    height="40px"
    viewBox="0 0 152 40"
    version="1.1"
    xmlns="http://www.w3.org/2000/svg"
    xmlns:xlink="http://www.w3.org/1999/xlink"
>
    <!-- Generator: Sketch 48.1 (47250) - http://www.bohemiancoding.com/sketch -->
    <title>Logo</title>
    <desc>Created with Sketch.</desc>
    <defs></defs>
    <g
        id="Home"
        stroke="none"
        stroke-width="1"
        fill="none"
        fill-rule="evenodd"
        transform="translate(-50.000000, -50.000000)"
    >
        <g id="Logo" transform="translate(50.000000, 50.000000)">
            <path
                d="M35.4436145,28.1232529 L40.9797269,28.1232529 C40.8994934,26.182896 40.0169248,25.2127175 38.332021,25.2127175 C36.8075842,25.2127175 35.7645486,26.0211996 35.4436145,28.1232529 L35.4436145,28.1232529 Z M42.4239302,34.5102611 C41.300661,34.9953504 40.0971583,35.237895 38.652955,35.237895 C35.2831475,35.237895 33.2773096,33.9443237 33.2773096,29.4168242 C33.2773096,25.5361103 35.0424469,23.434057 38.332021,23.434057 C41.5413615,23.434057 42.9855648,25.2935657 42.9855648,28.3657975 C42.9855648,28.5274939 42.9855648,29.1742796 42.8250977,29.6593688 L35.363381,29.6593688 C35.4436145,32.8124488 36.7273507,33.4592345 38.7331886,33.4592345 C39.7762242,33.4592345 41.140194,33.2166899 41.9425291,32.893297 L42.4239302,34.5102611 Z M52.2447352,34.9953504 L49.3563287,30.7912437 L46.4679222,34.9953504 L43.9004498,34.9953504 L48.2330595,29.1742796 L44.1411504,23.6766016 L46.6283893,23.6766016 L49.4365622,27.7190119 L52.1645017,23.6766016 L54.6517406,23.6766016 L50.5598314,29.1742796 L54.7319741,34.9953504 L52.2447352,34.9953504 Z M58.6574987,39.5228499 L56.5714274,39.5228499 L56.5714274,23.6766016 L58.6574987,23.6766016 L58.6574987,24.4850836 L58.7377322,24.4850836 C59.8610014,23.6766016 60.7435701,23.434057 61.9470728,23.434057 C65.2366468,23.434057 66.359916,26.182896 66.359916,29.0934314 C66.359916,32.489056 64.9959463,35.237895 61.3854382,35.237895 C60.422636,35.237895 59.4598339,34.9953504 58.6574987,34.5911093 C58.6574987,34.5911093 58.5772652,34.5911093 58.5772652,34.6719576 L58.5772652,39.5228499 L58.6574987,39.5228499 Z M70.4581414,25.9403513 L70.4581414,35.0761986 L68.37207,35.0761986 L68.37207,23.7574498 L70.4581414,23.7574498 L70.4581414,24.6467801 L70.5383749,24.6467801 C71.6616441,23.9191462 72.7849132,23.434057 74.148883,23.5149052 L74.148883,25.3744139 C72.3837457,25.3744139 71.1000095,25.6169585 70.4581414,25.9403513 Z M84.2765475,34.5102611 C83.1532783,34.9953504 81.9497756,35.237895 80.5055724,35.237895 C77.1357648,35.237895 75.129927,33.9443237 75.129927,29.4168242 C75.129927,25.5361103 76.8950643,23.434057 80.1846383,23.434057 C83.3939789,23.434057 84.8381821,25.2935657 84.8381821,28.3657975 C84.8381821,28.5274939 84.8381821,29.1742796 84.6777151,29.6593688 L77.1357648,29.6593688 C77.2159983,32.8124488 78.4997345,33.4592345 80.5055724,33.4592345 C81.548608,33.4592345 82.9125778,33.2166899 83.7149129,32.893297 L84.2765475,34.5102611 Z M86.9221756,32.893297 C87.7245107,33.2166899 89.1687139,33.5400827 90.1315161,33.5400827 C91.5757193,33.5400827 92.618755,33.0549934 92.618755,31.9231186 C92.618755,30.7103955 91.4152523,30.3870027 89.9710491,29.9827616 C88.1256783,29.5785206 86.6012415,28.7700385 86.6012415,26.6679852 C86.6012415,24.3233872 88.2861453,23.434057 90.9338512,23.434057 C91.9768869,23.434057 93.2606231,23.7574498 94.1431918,24.0808426 L93.7420242,25.8595031 C92.6989885,25.4552621 91.6559529,25.2127175 90.7733842,25.2127175 C89.329181,25.2127175 88.6070793,25.6978067 88.6070793,26.587137 C88.6070793,27.7998601 89.9710491,28.0424047 91.1745518,28.3657975 C92.9396891,28.8508867 94.7048264,29.4168242 94.7048264,31.7614222 C94.7048264,34.1868683 92.618755,35.237895 90.0512826,35.237895 C89.0082469,35.237895 87.4838102,34.9953504 86.521008,34.6719576 L86.9221756,32.893297 Z M96.5853885,32.893297 C97.3877236,33.2166899 98.8319268,33.5400827 99.794729,33.5400827 C101.238932,33.5400827 102.281968,33.0549934 102.281968,31.9231186 C102.281968,30.7103955 101.078465,30.3870027 99.634262,29.9827616 C97.7888912,29.5785206 96.2644544,28.7700385 96.2644544,26.6679852 C96.2644544,24.3233872 97.9493582,23.434057 100.597064,23.434057 C101.6401,23.434057 102.923836,23.7574498 103.806405,24.0808426 L103.405237,25.8595031 C102.362201,25.4552621 101.319166,25.2127175 100.436597,25.2127175 C98.9923939,25.2127175 98.2702922,25.6978067 98.2702922,26.587137 C98.2702922,27.7998601 99.634262,28.0424047 100.837765,28.3657975 C102.602902,28.8508867 104.368039,29.4168242 104.368039,31.7614222 C104.368039,34.1868683 102.281968,35.237895 99.7144955,35.237895 C98.6714598,35.237895 97.1470231,34.9953504 96.1842209,34.6719576 L96.5853885,32.893297 Z M106.478028,19.1491021 L108.564099,18.9065575 L108.564099,24.4042354 L108.644333,24.4042354 C109.847836,23.6766016 110.730404,23.434057 111.853673,23.434057 C115.143248,23.434057 116.266517,26.182896 116.266517,29.0934314 C116.266517,32.489056 114.74208,35.237895 110.971105,35.237895 C109.205968,35.237895 107.44083,34.6719576 106.397795,34.3485647 L106.397795,19.1491021 L106.478028,19.1491021 Z M124.407379,29.0934314 L124.487612,27.5573155 C124.487612,25.9403513 123.685277,25.2127175 121.92014,25.2127175 C120.55617,25.2127175 119.753835,25.4552621 118.630566,25.7786549 L118.309632,24.1616908 C119.432901,23.6766016 120.716637,23.5149052 122.241074,23.5149052 C124.808547,23.5149052 126.573684,24.4850836 126.573684,27.2339226 L126.573684,33.5400827 L128.098121,33.5400827 L128.098121,34.833654 C127.215552,35.237895 126.734151,35.3187432 126.012049,35.3187432 C125.289948,35.3187432 124.648079,34.9145022 124.567846,34.2677165 L124.487612,34.2677165 C123.444577,34.9145022 122.241074,35.3187432 120.957338,35.3187432 C119.031734,35.3187432 117.507297,34.4294129 117.507297,32.084815 C117.507297,29.740217 118.9515,28.8508867 121.438739,28.8508867 C122.160841,28.7700385 123.364343,28.8508867 124.407379,29.0934314 Z M131.5732,25.8595031 L131.5732,34.9953504 L129.487129,34.9953504 L129.487129,23.6766016 L131.5732,23.6766016 L131.5732,24.5659319 L131.653434,24.5659319 C132.856937,23.7574498 133.980206,23.434057 135.183709,23.434057 C137.51048,23.434057 138.794217,24.6467801 138.794217,27.1530744 L138.794217,34.9953504 L136.708145,34.9953504 L136.708145,27.7190119 C136.708145,26.2637442 136.306978,25.1318693 134.54184,25.1318693 C133.258104,25.2127175 132.295302,25.6169585 131.5732,25.8595031 Z M143.194663,28.2041011 L145.200501,28.2041011 L148.570309,23.6766016 L151.057548,23.6766016 L146.965638,28.931735 L151.699416,34.9953504 L149.131943,34.9953504 L145.200501,29.9019134 L143.194663,29.9019134 L143.194663,34.9953504 L141.108592,34.9953504 L141.108592,19.1491021 L143.194663,18.9065575 L143.194663,28.2041011 Z M58.6574987,25.6169585 L58.6574987,33.2166899 C59.5400674,33.4592345 60.262169,33.5400827 61.1447376,33.5400827 C63.6319765,33.5400827 64.1936111,31.6805739 64.1936111,29.1742796 C64.1936111,27.1530744 63.8726771,25.1318693 61.3052047,25.1318693 C60.101702,25.2127175 59.5400674,25.4552621 58.6574987,25.6169585 Z M77.2962318,28.1232529 L82.7521107,28.1232529 C82.6718772,26.182896 81.8695421,25.2127175 80.1044048,25.2127175 C78.6602016,25.2127175 77.5369324,26.0211996 77.2962318,28.1232529 Z M108.560823,25.6169585 L108.560823,33.2166899 C109.443391,33.4592345 110.165493,33.5400827 110.887595,33.5400827 C113.455067,33.5400827 114.096935,31.6805739 114.096935,29.1742796 C114.096935,27.1530744 113.776001,25.1318693 111.128295,25.1318693 C109.924793,25.2127175 109.363158,25.4552621 108.560823,25.6169585 Z M124.491222,30.4678509 L121.281881,30.4678509 C119.837678,30.4678509 119.516744,31.1954847 119.516744,32.0039668 C119.516744,33.2166899 120.158612,33.5400827 121.201648,33.5400827 C122.485384,33.5400827 123.608653,33.2975381 124.491222,33.0549934 L124.491222,30.4678509 Z"
                id="text"
                fill="#1F1400"
            ></path>
            <path
                d="M13.4330002,5.15880873 C8.84584174,5.15880873 5.1195861,8.91400741 5.1195861,13.5414835 L5.1195861,16.1216667 C5.1195861,20.756459 8.83926541,24.5043415 13.4339211,24.5043415 L29.4376201,24.5043415 L29.4376201,29.6631502 L13.4339211,29.6631502 C6.0118861,29.6631502 0,23.6056811 0,16.1216667 L0,13.5414835 C0,6.06499753 6.01825181,0 13.4330002,0 L27.5198064,0 C33.5244162,0 38.3968957,4.91482017 38.3968957,10.9624686 C38.3968957,14.8804603 36.3558386,18.3191579 33.2875664,20.2576261 L29.4376201,16.7661284 L29.4376201,20.6352349 L12.8032545,20.6352349 C10.6802836,20.6352349 8.95927567,18.8975019 8.95927567,16.7701656 L8.95927567,12.8929847 C8.95927567,10.7583658 10.6773817,9.02791528 12.8032545,9.02791528 L27.5289548,9.02791528 C28.5830815,9.02791528 29.4376201,9.88659543 29.4376201,10.9624686 C29.4376201,12.0308928 28.5896318,12.8970218 27.5289548,12.8970218 L12.7989652,12.8970218 L12.7989652,16.7661284 L27.5198064,16.7661284 C30.6974448,16.7661284 33.2773096,14.166576 33.2773096,10.9624686 C33.2773096,7.76277416 30.6957771,5.15880873 27.5198064,5.15880873 L13.4330002,5.15880873 Z"
                id="Symbol"
                fill="#FFAA00"
            ></path>
        </g>
    </g>
</svg>